
<svg width="1000" height="500" viewBox="0 0 1000 500" xmlns="http://www.w3.org/2000/svg">
  <g fill="none" stroke="currentColor" stroke-width="1">
    <!-- Africa -->
    <path d="M500,170 Q530,220 540,280 Q560,320 540,350 Q520,370 500,390 Q480,370 460,350 Q440,330 440,300 Q420,270 430,240 Q450,210 470,190 Q490,175 500,170" />
    
    <!-- Europe -->
    <path d="M480,140 Q500,130 520,125 Q550,120 570,130 Q590,150 600,170 Q590,180 580,185 Q560,190 540,180 Q520,170 500,160 Q490,150 480,140" />
    
    <!-- Asia -->
    <path d="M580,130 Q610,120 640,110 Q680,105 720,120 Q760,140 780,170 Q800,200 810,230 Q800,260 780,280 Q750,290 720,280 Q700,270 680,250 Q660,220 640,200 Q620,180 600,170 Q590,150 580,130" />
    
    <!-- North America -->
    <path d="M200,120 Q230,110 260,110 Q290,115 320,130 Q340,150 350,180 Q345,210 330,230 Q310,250 290,260 Q270,270 250,260 Q230,250 210,230 Q200,200 190,180 Q190,150 200,120" />
    
    <!-- South America -->
    <path d="M280,270 Q290,290 295,310 Q300,340 290,370 Q280,390 260,400 Q240,390 230,370 Q220,340 230,310 Q240,290 260,270 Q270,270 280,270" />
    
    <!-- Australia -->
    <path d="M780,320 Q800,310 820,310 Q840,320 850,340 Q855,360 850,380 Q840,395 820,400 Q800,395 785,380 Q775,360 780,340 Q775,330 780,320" />
  </g>
</svg>
